<svg width="1044" height="1280" xmlns="http://www.w3.org/2000/svg" preserveAspectRatio="xMidYMid meet">
 <metadata>Created by potrace 1.15, written by Peter Selinger 2001-2017</metadata>
 <g>
  <title>background</title>
  <rect fill="none" id="canvas_background" height="402" width="582" y="-1" x="-1"/>
 </g>
 <g>
  <title>Layer 1</title>
  <g id="svg_1" fill="#216DAB" transform="translate(0,1280) scale(0.10000000149011612,-0.10000000149011612) ">
   <path id="svg_2" d="m3276,12553c-3,-59 -6,-188 -7,-285c0,-98 -4,-178 -7,-178c-4,0 -56,52 -117,115c-60,64 -117,115 -126,115c-10,0 -20,-11 -23,-25c-14,-56 28,-138 139,-275c81,-100 95,-134 105,-263c5,-62 5,-130 2,-152c-10,-56 -33,-52 -53,10c-10,27 -22,51 -28,53c-22,7 -33,46 -41,138c-10,112 -39,177 -82,182c-34,4 -63,-36 -63,-90c0,-32 -3,-38 -20,-38c-20,0 -81,36 -138,82c-31,25 -93,30 -108,8c-25,-39 4,-101 119,-250c40,-52 62,-90 60,-103c-2,-12 -19,-29 -42,-41c-51,-27 -63,-47 -51,-82c25,-69 95,-79 160,-23c18,16 36,26 38,22c3,-4 8,-43 12,-86c11,-114 3,-119 -101,-62c-96,52 -121,56 -130,21c-12,-49 20,-102 116,-194l55,-53l-35,4c-49,6 -75,-6 -90,-42c-24,-59 -54,-51 -240,69c-58,38 -135,83 -172,101c-78,38 -98,32 -98,-30c0,-58 45,-120 119,-161c69,-38 70,-37 -30,-54c-45,-8 -89,-41 -89,-66c0,-10 12,-28 27,-40c22,-17 36,-20 68,-16c35,6 41,4 50,-16c7,-15 20,-24 40,-26c39,-5 53,-18 26,-27c-12,-3 -21,-12 -21,-20c0,-13 40,-52 94,-91l29,-21l-94,-17c-114,-21 -157,-40 -165,-73c-8,-29 19,-70 59,-93c23,-13 31,-13 74,3c26,9 68,17 92,17c36,0 48,-5 75,-34c46,-50 96,-52 144,-6c27,25 40,30 83,30l52,0l-67,-63c-36,-34 -66,-68 -66,-75c0,-7 16,-20 35,-28c44,-18 90,-8 141,31c38,29 38,29 24,-45c-12,-62 -2,-80 42,-80c37,0 68,16 68,35c0,19 16,19 24,0c11,-30 34,-14 66,47l34,63l23,-53c28,-65 43,-126 34,-141c-13,-20 -73,-31 -233,-43c-200,-15 -251,-7 -362,59c-128,75 -188,103 -227,103c-41,0 -64,-20 -55,-48c7,-20 68,-67 124,-96c19,-10 32,-20 29,-22c-2,-3 -38,2 -78,11c-95,21 -276,109 -357,175c-93,75 -151,90 -187,49c-19,-21 -19,-22 10,-91c10,-25 -18,-33 -160,-47c-66,-7 -132,-17 -147,-22c-54,-21 -44,-62 24,-102c92,-53 216,-72 358,-54l65,9l-61,-40c-67,-43 -94,-75 -94,-108c0,-30 31,-54 69,-54c39,0 118,39 151,75c46,51 101,85 137,85c48,0 38,-19 -23,-48c-59,-28 -104,-69 -104,-94c0,-9 13,-24 29,-32c32,-17 41,-34 41,-75c0,-15 5,-32 12,-39c17,-17 58,-15 65,3c7,21 88,61 139,70c51,10 68,18 136,71c61,48 68,51 68,31c0,-18 -75,-87 -147,-136c-69,-46 -84,-72 -57,-102c32,-35 113,-20 158,30c30,33 37,25 30,-34c-6,-52 -6,-55 15,-55c23,0 50,25 110,99l34,43l25,-26l26,-26l32,31c29,28 41,32 106,37c78,5 132,24 188,66c49,37 90,102 90,143c0,48 16,41 29,-13c10,-41 9,-51 -9,-90c-44,-89 -268,-252 -530,-384l-59,-30l-163,80c-89,44 -175,80 -190,80c-43,0 -38,-43 14,-115l42,-59l-39,24c-25,15 -56,24 -89,26c-35,1 -75,14 -130,40c-93,44 -109,41 -110,-27l-1,-44l-59,-3c-35,-2 -79,3 -107,12c-67,22 -83,20 -124,-15c-31,-27 -36,-37 -33,-68l3,-36l53,1c28,1 52,0 52,-3c0,-3 -13,-22 -29,-42c-49,-61 -46,-65 44,-71c86,-5 86,-5 71,-64c-7,-30 7,-36 64,-26c65,12 72,6 64,-51c-8,-57 -4,-58 68,-32c60,21 93,11 125,-36c29,-43 29,-82 0,-109c-29,-27 -43,-28 -57,-1c-17,31 -71,49 -144,49c-55,0 -67,-3 -76,-20c-9,-16 -17,-18 -60,-13c-67,8 -67,-11 0,-76c43,-42 50,-54 50,-87c0,-58 -18,-114 -37,-114c-9,0 -48,26 -87,57c-91,73 -87,70 -127,87c-22,9 -42,11 -56,5l-23,-8l20,-51c11,-28 20,-57 20,-65c0,-21 -43,-19 -175,5c-132,24 -164,25 -172,4c-14,-37 124,-125 220,-139c26,-4 47,-10 47,-14c0,-3 -9,-19 -20,-36c-11,-16 -20,-35 -20,-42c0,-21 39,-34 109,-37c79,-3 87,-6 94,-44c7,-33 27,-42 93,-42c51,0 74,-23 74,-73c0,-20 4,-37 9,-37c5,0 30,25 56,56c48,56 61,59 67,14c1,-14 10,-26 18,-26c8,-1 21,-2 27,-3c7,0 26,-27 42,-58c16,-33 51,-78 80,-104c29,-27 51,-55 51,-67c0,-25 18,-40 60,-49c21,-4 51,-23 77,-50c24,-23 49,-43 56,-43c7,0 35,20 64,45c62,54 80,59 32,9c-46,-49 -171,-107 -299,-138c-258,-62 -322,-61 -441,8c-119,69 -160,61 -139,-29c8,-33 6,-42 -8,-53c-25,-20 -133,-8 -181,19c-37,20 -40,21 -74,4c-42,-20 -71,-50 -62,-64c3,-6 37,-31 75,-55c79,-51 92,-71 88,-129l-3,-42l57,-1c72,-1 88,-13 81,-62c-4,-30 0,-41 17,-57c33,-30 103,-26 157,8c24,15 45,27 47,27c3,0 -4,-16 -15,-35c-19,-31 -20,-39 -9,-65c16,-38 45,-46 116,-32c61,13 84,8 84,-17c0,-39 -151,-91 -270,-92c-86,-1 -110,7 -181,56c-74,51 -129,42 -114,-18c9,-33 -17,-39 -119,-26c-173,22 -197,-26 -43,-87c72,-28 97,-55 97,-103c0,-30 6,-44 22,-55c28,-20 88,-20 134,-1c46,19 54,13 54,-36c0,-67 13,-81 73,-77c31,2 51,-1 51,-7c-1,-5 -5,-25 -9,-44l-7,-34l50,6c47,5 53,4 70,-20c27,-37 49,-26 151,72c100,96 140,119 188,112c42,-7 103,-44 103,-63c0,-18 -42,-28 -91,-20c-54,9 -88,-2 -95,-29c-6,-23 20,-83 58,-138c25,-35 17,-57 -21,-57c-41,0 -72,-13 -125,-54c-26,-19 -63,-38 -84,-42c-20,-3 -50,-15 -65,-26c-31,-21 -114,-38 -194,-38c-28,0 -80,-9 -115,-20c-41,-13 -91,-20 -145,-20c-91,0 -103,-8 -118,-76c-3,-18 -14,-39 -23,-47c-19,-17 -150,-37 -243,-37c-78,0 -93,-19 -49,-60c47,-44 151,-92 217,-99c31,-3 58,-11 60,-17c2,-5 -12,-28 -32,-51c-19,-23 -35,-45 -35,-51c0,-5 28,-13 62,-18l63,-9l-3,-37c-3,-35 -1,-38 22,-38c14,0 58,7 98,15c72,16 141,13 164,-6c7,-6 10,-27 6,-54c-4,-38 -2,-45 12,-45c32,0 55,20 88,75c18,30 36,55 40,55c5,0 8,-19 8,-43c0,-63 14,-76 94,-88c125,-17 166,5 206,111c12,33 26,60 29,60c4,0 19,-32 32,-71l25,-71l53,71c29,39 57,71 62,71c5,0 9,-19 9,-43c0,-49 20,-83 42,-74c9,3 28,37 42,75c25,64 45,90 60,75c3,-3 3,-17 0,-29c-7,-28 4,-30 89,-13c31,6 63,9 71,6c45,-18 -66,-114 -180,-156c-31,-12 -84,-25 -119,-30c-69,-10 -99,-23 -113,-47c-11,-20 -71,-33 -157,-34c-147,-1 -172,-17 -120,-78c32,-38 96,-64 165,-67c30,-2 65,-3 78,-4c38,-2 28,-37 -16,-54c-84,-34 -210,-46 -715,-72c-443,-23 -568,-38 -594,-72c-10,-13 -24,-15 -68,-10c-66,7 -85,2 -85,-22c0,-39 83,-89 163,-98c97,-11 116,-41 44,-72c-24,-11 -70,-44 -103,-75l-59,-55l97,6l97,6l10,-27c10,-24 15,-26 66,-26c50,0 56,-2 65,-25c17,-45 86,-28 143,34c16,17 37,31 48,31c17,0 18,-3 8,-23c-7,-12 -25,-39 -41,-59c-43,-55 -35,-73 30,-73c43,1 57,6 81,29c41,39 61,31 94,-36c24,-50 32,-58 55,-58c28,0 96,38 165,92c21,17 40,28 43,25c3,-2 0,-34 -7,-69c-15,-84 -7,-118 27,-118c32,0 54,12 133,72c35,26 66,47 67,45c2,-2 -6,-26 -18,-54c-30,-71 -21,-87 42,-78c43,6 56,3 95,-20l45,-26l9,25c6,13 19,27 30,31c27,8 61,-11 61,-34c0,-35 29,-46 116,-46c46,0 85,-4 86,-10c9,-30 -211,-123 -414,-175c-153,-38 -390,-74 -441,-66c-23,4 -66,22 -98,41c-77,47 -127,67 -150,60c-39,-13 -13,-63 49,-95c39,-19 19,-22 -80,-11c-51,6 -147,16 -213,21c-79,6 -166,21 -255,44c-156,41 -150,40 -150,22c0,-44 182,-155 287,-176c117,-23 124,-28 42,-29c-118,-2 -164,-25 -138,-72c14,-26 36,-34 142,-49c48,-7 87,-16 87,-21c0,-6 -18,-27 -41,-49c-24,-23 -38,-44 -34,-50c9,-15 58,-8 108,14c40,18 39,18 51,-37c6,-25 10,-27 59,-27c46,0 176,26 232,46c13,5 7,-7 -20,-35c-45,-48 -39,-62 25,-54c44,6 80,-10 80,-37c0,-69 35,-65 104,12l56,63l-45,-85c-50,-95 -55,-125 -25,-135c36,-12 151,31 205,76c53,44 63,40 45,-18c-20,-62 -49,-102 -93,-127c-75,-43 -402,-148 -502,-161c-41,-6 -66,-1 -139,24c-107,37 -218,61 -285,61c-86,0 -99,-16 -60,-72c12,-16 19,-32 16,-34c-3,-3 -59,8 -124,24c-65,16 -137,33 -160,36c-47,7 -93,-7 -93,-27c0,-7 25,-42 55,-77c30,-35 53,-65 51,-67c-2,-3 -35,5 -73,16c-132,39 -297,45 -338,11c-14,-12 -14,-15 2,-32c43,-48 180,-95 307,-106l89,-7l-57,-45c-67,-53 -99,-99 -94,-137c3,-25 7,-28 43,-28c55,0 65,-9 65,-61c0,-51 25,-84 65,-84c32,0 93,-31 119,-59c11,-12 29,-21 41,-21c25,0 114,56 122,77c8,19 19,16 57,-17c56,-50 81,-140 39,-140c-12,0 -14,-7 -9,-30l6,-31l-90,7c-63,5 -90,4 -90,-4c0,-22 -45,-35 -153,-43c-121,-9 -148,-21 -128,-57c33,-63 118,-81 276,-59c55,8 101,13 103,12c2,-2 -32,-22 -75,-45c-123,-66 -159,-113 -117,-154c19,-19 22,-19 70,-3c22,8 52,17 68,21l30,7l-24,-19c-16,-13 -21,-24 -16,-37c6,-16 15,-17 73,-12l66,7l-26,-28c-15,-16 -27,-31 -27,-35c0,-17 67,-5 130,23c100,44 131,38 70,-13c-60,-51 -26,-76 68,-50c109,30 105,30 97,-6c-7,-34 3,-39 49,-21c14,5 26,6 26,2c-1,-17 -18,-32 -55,-48c-35,-15 -99,-18 -470,-23c-237,-3 -436,-10 -443,-14c-20,-13 3,-34 46,-41c40,-6 112,-59 112,-81c0,-25 -40,-37 -154,-47c-135,-12 -196,-34 -196,-72c0,-80 191,-91 389,-22c41,14 76,26 78,26c13,0 -6,-31 -57,-92c-66,-78 -80,-109 -59,-134c17,-20 68,-13 154,21c34,14 67,25 73,25c13,0 19,-18 27,-90c9,-76 23,-110 47,-110c48,0 198,95 198,126c0,20 28,17 39,-5c8,-13 3,-43 -15,-111c-14,-51 -23,-95 -19,-98c15,-15 105,50 240,174c80,74 148,134 151,134c7,0 -22,-49 -61,-104c-34,-47 -44,-91 -29,-130c11,-28 35,-18 107,47l70,62l-6,-54c-7,-63 -31,-93 -85,-109c-85,-26 -284,-55 -377,-56c-90,-1 -106,2 -165,28c-49,22 -81,29 -129,30c-75,1 -89,-14 -40,-43l33,-20l-122,6c-67,3 -122,3 -122,-1c0,-4 11,-22 25,-40c14,-18 25,-38 25,-44c0,-8 -34,-11 -108,-10c-82,1 -117,-3 -149,-16c-66,-28 -53,-60 27,-71c101,-14 110,-16 110,-31c0,-17 -44,-45 -155,-96c-95,-44 -165,-92 -165,-112c0,-38 76,-32 246,20c153,46 196,45 117,-5c-57,-34 -77,-67 -74,-113c1,-20 40,-24 104,-9c44,11 46,3 12,-47c-32,-46 -32,-62 0,-62c31,0 94,31 156,76c26,19 50,34 54,34c7,0 4,-27 -11,-84c-8,-34 9,-34 48,-1c17,14 32,24 34,22c2,-2 -1,-18 -7,-36c-16,-45 -4,-50 34,-14c53,49 89,73 109,73c18,0 19,-6 16,-52c-3,-51 -2,-53 23,-56c16,-2 62,16 122,47c53,28 101,51 107,51c6,0 18,-7 26,-15c17,-17 42,-18 97,-6c20,5 37,5 37,1c0,-13 -92,-44 -259,-86c-85,-21 -168,-48 -185,-59c-40,-27 -45,-59 -12,-80c27,-18 75,-12 190,21c57,16 76,18 76,6c0,-5 -39,-50 -86,-101c-100,-109 -100,-122 -1,-102c34,7 100,28 147,48c47,19 97,40 112,46c15,6 30,8 34,4c3,-3 -14,-42 -40,-85c-62,-106 -61,-112 13,-112l59,0l6,-35c9,-47 30,-45 93,10c28,25 54,45 57,45c3,0 6,-18 6,-39c0,-51 26,-72 79,-64c62,10 113,42 182,114l65,69l-15,-73c-35,-173 28,-181 181,-23c59,61 89,85 92,75c3,-7 9,-45 15,-82c18,-126 54,-146 128,-72c24,25 48,45 52,45c5,0 23,-16 40,-35c37,-42 47,-44 56,-8c11,48 33,73 64,73c34,0 54,22 71,75c17,56 26,62 52,38c54,-49 115,-57 151,-20c13,12 46,65 74,117c50,92 96,150 109,137c3,-3 1,-29 -5,-58c-6,-29 -8,-56 -3,-61c12,-12 111,52 144,93c16,19 32,55 36,80l8,44l13,-38c7,-20 19,-37 27,-37c23,0 44,62 45,132c0,35 4,72 8,83c8,19 8,19 20,-3c16,-30 69,-62 103,-62c54,0 61,-21 54,-150c-15,-248 -51,-403 -139,-593l-37,-77l403,2l402,3l3,36c2,21 -9,67 -27,115c-38,103 -64,263 -59,359c4,94 17,109 59,69c17,-16 37,-42 45,-57c18,-34 83,-107 95,-107c12,0 11,42 -1,74c-10,27 0,35 18,14c6,-7 29,-50 52,-96c23,-45 49,-86 58,-91c10,-5 44,-12 77,-16c33,-3 80,-16 103,-28c41,-20 45,-20 57,-4c18,26 33,21 93,-28c30,-25 63,-45 75,-45c18,0 19,5 14,55c-6,59 0,66 28,35c9,-10 38,-27 63,-36c43,-17 45,-17 59,2c24,32 128,25 292,-22c23,-7 24,-6 17,34c-4,31 -3,42 6,42c23,0 88,-21 88,-28c-1,-4 -14,-23 -30,-42c-38,-43 -38,-50 3,-50c32,0 124,40 186,82c30,19 34,20 28,5c-8,-22 16,-72 38,-81c35,-13 57,-4 140,59c47,37 90,63 95,60c15,-10 12,-54 -7,-86c-17,-28 -17,-29 11,-58c42,-44 62,-45 106,-5l39,35l22,-43c12,-24 23,-45 24,-46c2,-2 20,15 40,37c40,44 60,50 91,26c38,-29 64,-12 110,70c9,15 20,19 42,17c17,-2 41,2 54,9l22,12l-18,-28c-29,-45 -7,-49 78,-15c107,42 133,39 81,-10l-25,-24l20,-21c15,-16 19,-30 14,-49c-7,-30 -4,-31 62,-11c60,18 167,20 194,3c18,-11 28,-9 70,13l50,27l0,-39c0,-50 16,-51 77,-4c52,40 56,41 73,20c9,-11 17,-12 32,-4c11,6 50,15 86,20c75,11 94,25 127,90c13,25 31,51 40,59c15,13 16,10 10,-23c-9,-47 4,-48 47,0c66,74 87,93 97,93c33,0 24,-166 -15,-273c-14,-40 -28,-91 -31,-114l-5,-43l326,0c179,0 326,2 326,4c0,2 -22,50 -49,107c-27,57 -54,124 -59,150c-16,64 -37,273 -29,291c3,9 24,19 46,23c22,4 52,17 66,31c14,13 27,24 29,24c2,0 6,-27 9,-60c11,-97 33,-124 61,-72l15,27l1,-25c0,-36 25,-67 78,-101c66,-41 75,-39 66,17c-9,64 9,56 64,-27c77,-116 90,-129 125,-129c18,0 47,9 65,20c18,11 35,20 37,20c3,0 12,-17 20,-37c18,-42 30,-53 63,-53c16,0 27,-10 39,-35c9,-19 20,-35 23,-35c4,0 17,11 30,25c13,14 27,25 31,25c5,0 24,-13 42,-30c64,-55 97,-36 111,64c3,21 7,41 10,44c3,3 35,-21 70,-52c70,-61 124,-90 146,-76c10,6 11,24 6,72l-6,65l48,-47c66,-64 169,-99 200,-68c7,7 12,24 12,39l0,28l51,-35c61,-41 67,-41 75,-10c5,21 13,25 52,28c25,2 47,8 49,14c2,6 -12,31 -32,57c-60,79 -53,81 98,27c59,-21 101,-30 130,-28l42,3l-75,72c-41,40 -70,73 -63,73c6,0 42,-7 79,-16c36,-8 85,-14 108,-12c34,2 42,7 44,26c4,30 -30,44 -200,81c-124,27 -188,46 -188,54c0,2 25,2 55,-1c37,-3 55,-1 55,7c0,17 17,13 100,-24c43,-19 90,-35 105,-35c26,0 27,2 21,35c-6,31 -5,35 15,35c12,0 44,-16 72,-36l50,-36l-6,31c-7,34 -1,34 36,3c24,-21 30,-10 19,32c-6,20 -7,36 -2,36c5,0 35,-15 67,-34c100,-59 147,-57 103,5c-12,16 -21,32 -19,34c2,2 24,0 48,-5c25,-4 51,-6 58,-3c29,11 6,55 -48,89c-23,14 -39,28 -36,30c3,3 61,-8 129,-25c131,-33 182,-38 194,-20c10,16 -29,44 -104,74c-108,44 -153,67 -149,79c2,6 30,14 61,17c32,4 65,13 73,22c27,27 -19,41 -131,42c-58,1 -101,6 -103,11c-2,6 6,19 17,29c36,33 24,38 -77,31c-77,-5 -93,-3 -75,6c12,6 22,18 22,26c0,20 -82,12 -167,-17c-74,-25 -130,-26 -272,-6c-134,19 -199,35 -213,52c-16,19 -29,96 -14,85c6,-5 32,-25 57,-45c51,-41 61,-44 79,-22c18,22 5,60 -37,106c-62,68 -29,54 82,-36c100,-81 188,-135 200,-124c3,3 -4,32 -15,64c-20,59 -19,95 3,95c7,0 18,-9 24,-19c13,-21 127,-81 153,-81c21,0 40,40 40,83c0,59 9,63 92,39c83,-25 99,-27 115,-11c16,16 -4,53 -56,104c-23,21 -41,42 -41,46c0,8 36,0 123,-26c80,-23 216,-18 246,9c19,18 20,21 5,37c-17,19 -46,26 -172,38c-46,5 -89,14 -95,20c-17,17 19,49 72,65c118,34 24,46 -373,46c-277,0 -337,6 -365,35c-15,15 -13,16 22,10c33,-7 37,-5 37,14c0,25 0,25 70,6c84,-22 116,-5 63,33c-42,31 -21,37 48,13c35,-12 73,-21 86,-21c26,0 31,18 8,26c-29,12 -14,19 31,15c55,-4 77,12 48,34c-18,14 -17,15 11,9c17,-4 41,-11 54,-16c28,-10 57,-3 64,16c10,25 -25,58 -97,91l-70,33l125,-5l126,-6l34,31c44,41 34,47 -84,56c-56,4 -101,13 -116,23c-19,12 -39,14 -88,10c-59,-6 -64,-5 -58,12c3,12 0,21 -10,25c-26,10 -17,45 23,88l38,41l27,-26c15,-13 40,-30 56,-37c25,-10 35,-8 86,19c32,17 68,31 80,31c29,0 41,16 50,63c7,35 9,37 46,37c72,0 59,52 -27,113l-45,32l83,11c46,6 114,21 150,33c212,70 1,110 -239,45c-16,-5 -9,7 28,44c28,28 48,56 44,61c-10,18 -99,13 -201,-11c-52,-12 -97,-18 -101,-15c-3,4 1,15 10,25c26,28 21,40 -20,46c-41,7 -154,-11 -273,-44c-91,-25 -110,-22 -340,42c-129,35 -157,46 -194,71c-27,19 -73,103 -62,114c2,3 20,-7 39,-21c64,-49 187,-76 187,-41c0,16 -28,72 -57,115c-10,14 6,4 34,-22c29,-27 57,-48 62,-48c6,0 13,11 17,25c8,32 37,48 72,41c15,-3 33,-2 40,3c11,6 6,15 -20,36c-19,15 -25,24 -14,21c10,-4 59,-13 107,-22c96,-16 129,-10 129,26c0,24 8,25 60,4c22,-9 48,-13 57,-9c15,5 12,11 -20,42c-21,19 -37,36 -35,38c2,2 40,8 86,13c74,9 112,23 112,41c-1,25 -25,35 -97,41l-78,6l73,13c81,14 195,66 232,106l23,25l-24,0c-13,0 -62,-9 -109,-20c-47,-11 -139,-25 -205,-30c-66,-5 -151,-12 -190,-15l-70,-6l37,21c24,13 38,28 38,40c0,30 -35,25 -120,-16c-75,-36 -75,-36 -175,-30c-142,8 -344,48 -490,98c-141,49 -174,86 -64,74c64,-8 94,2 104,34c8,25 60,28 74,3c8,-16 11,-16 48,1c28,12 51,15 75,11c47,-9 55,6 30,55c-11,22 -17,40 -15,40c2,0 24,-14 49,-31c57,-39 109,-60 128,-53c18,7 21,52 7,102c-5,17 -8,32 -6,32c1,0 33,-18 70,-41c91,-55 111,-55 147,-1c33,48 40,50 75,22c26,-21 107,-28 117,-11c3,4 -10,26 -29,49c-19,22 -35,43 -35,46c0,13 25,5 56,-19c59,-45 114,-54 114,-19c0,10 14,14 48,14c37,0 50,4 60,21c13,20 20,21 85,15l72,-6l-45,40c-25,23 -57,43 -72,47c-15,3 -32,11 -38,19c-15,17 10,30 77,39c57,7 118,42 118,65c0,11 -14,15 -57,16c-32,1 -64,6 -70,12c-21,17 -151,31 -388,42c-502,23 -659,38 -697,65c-27,20 -11,27 75,35c83,7 138,30 148,63c3,10 4,21 1,24c-3,2 -55,8 -116,12c-86,6 -115,11 -131,26c-11,10 -52,23 -94,31c-78,13 -211,69 -234,97c-8,9 -11,21 -7,27c7,11 26,10 108,-6c24,-5 27,-3 27,20c0,39 26,22 46,-30c22,-59 42,-75 60,-49c8,10 14,33 14,49l1,31l48,-52l49,-52l22,52l22,51l20,-39c39,-77 52,-85 143,-85c91,0 105,8 105,57c0,43 13,42 40,-2c39,-63 98,-74 85,-15c-6,26 -3,30 20,36c26,6 98,1 178,-12c38,-7 39,-6 35,22c-3,28 -2,29 50,32c28,2 52,6 52,10c0,4 -14,24 -30,44l-31,37l38,6c92,14 219,73 210,98c-2,8 -43,15 -113,19c-127,9 -151,17 -160,55c-11,46 -22,53 -86,53c-33,0 -86,6 -117,14c-31,8 -96,17 -146,21c-49,3 -99,12 -110,19c-11,7 -36,17 -55,21c-19,4 -55,20 -80,35c-25,15 -64,31 -87,35c-24,4 -43,9 -43,12c0,4 11,20 23,37c66,87 60,106 -33,106c-38,0 -72,4 -75,10c-10,16 57,50 97,50c36,0 78,-26 166,-101c42,-37 81,-48 94,-25c8,14 18,16 54,10l45,-6l-6,35l-7,35l45,-5c40,-5 45,-3 50,18c4,13 7,35 7,48c0,20 4,22 23,17c90,-28 147,-15 147,34c0,34 23,53 91,75c26,9 53,23 60,31c22,27 -9,35 -108,28l-91,-6l-4,28c-4,40 -31,41 -100,5c-31,-17 -75,-33 -96,-37c-74,-12 -272,35 -272,64c0,16 28,22 75,16c67,-10 95,1 95,34c0,15 -6,34 -12,41c-11,12 -9,13 7,6c86,-34 103,-37 132,-23c22,10 29,21 31,51c3,40 7,41 80,37c30,-1 32,1 32,32c0,45 10,57 72,93c29,17 53,38 53,45c0,8 -15,23 -33,33c-32,19 -35,19 -70,3c-26,-12 -57,-16 -97,-14l-60,3l3,42c5,60 -13,63 -106,17c-71,-36 -83,-39 -157,-37c-157,2 -379,62 -441,119l-39,35l44,-31c53,-36 65,-37 103,-5c16,13 46,29 68,35c27,7 41,18 47,35c4,13 23,34 42,47c19,13 47,43 61,68c17,29 34,46 49,48c13,2 26,12 28,23c7,26 14,24 53,-16c40,-41 50,-43 50,-11c0,33 19,46 80,53c42,5 53,10 61,29c10,27 6,26 81,29c31,1 64,7 72,14c14,12 14,16 -5,39c-19,25 -19,27 -2,33c10,4 29,8 42,8c13,1 53,15 88,33c100,49 98,80 -4,67c-124,-16 -213,-22 -213,-13c1,5 7,20 15,34c48,84 -26,77 -155,-16c-57,-41 -67,-42 -80,-8c-20,52 -12,81 30,115c53,43 53,63 0,56c-27,-3 -43,-1 -51,9c-24,29 -149,13 -176,-23c-10,-13 -17,-14 -38,-5c-37,17 -34,62 6,96c36,30 33,30 92,12c25,-7 48,-12 51,-9c2,3 2,21 -1,40l-6,35l54,-4l54,-3l0,30c0,30 0,30 63,33c34,2 62,6 62,9c0,3 -12,22 -27,41l-26,35l35,-6c60,-9 78,31 33,73c-27,26 -50,27 -144,10c-83,-15 -110,-5 -103,39c5,39 -4,39 -92,6c-37,-14 -82,-25 -102,-25c-19,0 -48,-7 -65,-15l-30,-16l31,42c34,47 39,79 13,79c-15,0 -141,-49 -263,-103l-35,-15l-145,72c-151,75 -287,161 -321,204c-20,26 -25,77 -10,100c6,10 10,6 15,-14c20,-77 104,-132 221,-143c47,-4 81,-13 93,-24c23,-21 36,-21 52,-1c12,13 20,9 64,-35c29,-28 60,-51 70,-51c16,0 18,5 12,40c-3,22 -5,40 -3,40c2,0 18,-11 37,-25c55,-40 142,-28 125,17c-3,8 -33,30 -65,48c-61,34 -118,85 -108,96c3,3 31,-11 62,-32c30,-20 76,-40 100,-45c46,-8 98,-29 129,-51c22,-17 51,0 55,33c2,13 15,34 29,46c36,30 25,49 -47,80c-33,15 -60,30 -60,35c0,17 59,7 91,-17c98,-72 124,-85 163,-85c58,0 73,12 60,47c-6,18 -26,37 -56,53c-26,14 -49,28 -52,31c-3,2 42,3 99,1c120,-5 224,20 263,61c37,40 11,51 -145,66c-56,5 -107,12 -112,15c-6,4 -4,16 4,32c17,33 10,52 -21,60c-36,9 -68,-2 -138,-50c-64,-44 -187,-97 -267,-115c-78,-18 -87,-12 -29,20c77,42 86,52 64,73c-24,25 -64,15 -192,-47l-107,-52l-175,2c-208,2 -236,8 -232,48c2,16 13,46 24,69c23,45 16,47 70,-26c13,-18 19,-21 29,-11c10,10 16,10 30,-3c10,-9 30,-14 51,-12c33,3 33,3 30,51l-3,47l33,-20c38,-23 110,-27 127,-7c11,14 -8,36 -73,85l-29,22l47,0c33,0 52,-6 67,-21c31,-31 86,-30 109,1c16,21 27,25 67,24c26,-1 68,-5 93,-9c40,-6 48,-4 73,19c15,14 27,29 27,34c0,23 -45,44 -126,59c-86,16 -87,17 -64,32c13,9 36,26 50,39c24,22 25,22 6,37c-19,14 -19,15 7,15c16,0 32,8 39,20c10,16 20,18 49,14c29,-5 41,-2 59,16c21,21 21,23 4,41c-9,10 -43,24 -77,30l-60,12l57,29c83,42 120,113 74,142c-19,12 -63,-7 -228,-96c-117,-65 -149,-71 -174,-33c-13,20 -25,25 -59,25l-42,1l35,27c65,49 110,102 110,128c0,38 -25,39 -102,5c-39,-17 -75,-31 -79,-31c-12,0 -11,117 0,125c6,3 25,-4 43,-15c40,-24 66,-25 96,-4c36,25 26,65 -20,87c-21,9 -38,21 -38,26c0,11 34,55 87,113c57,63 81,112 63,133c-19,23 -63,18 -106,-13c-70,-49 -124,-63 -111,-28c9,22 -21,76 -41,76c-37,0 -63,-43 -76,-129c-10,-59 -19,-88 -35,-102c-11,-11 -21,-28 -21,-38c0,-21 -27,-47 -38,-37c-13,14 -5,190 11,228c8,20 45,68 81,108c73,79 109,139 104,173c-6,40 -32,28 -123,-54l-90,-82l-6,59c-4,33 -7,123 -8,202c-1,78 -5,142 -10,142c-5,0 -27,-20 -49,-44c-44,-48 -53,-80 -50,-188c1,-64 -10,-98 -33,-98c-5,0 -22,20 -36,44c-31,51 -90,89 -131,84c-44,-5 -39,-36 17,-103c189,-227 185,-220 197,-345l7,-65l-27,24c-14,13 -36,25 -48,26c-17,1 -24,10 -29,32c-13,65 -106,192 -129,178c-5,-3 -10,-24 -10,-45l0,-38l-58,29c-68,34 -167,69 -194,69c-32,0 -19,-30 29,-63c95,-66 128,-102 83,-90c-12,3 -35,-6 -62,-26c-23,-17 -50,-31 -60,-31c-24,0 -35,-29 -17,-42c9,-5 76,-7 172,-3c104,4 157,3 157,-4c0,-15 -35,-31 -68,-31c-45,0 -172,-94 -172,-127c0,-28 73,-40 121,-19c11,5 31,-5 59,-29c26,-22 51,-35 64,-33c18,3 21,10 20,46c-1,38 2,42 23,42c35,0 90,-26 102,-48c21,-40 24,-99 6,-134c-12,-23 -19,-68 -24,-153c-5,-99 -9,-120 -22,-123c-22,-4 -152,85 -215,147c-31,30 -58,69 -69,98c-30,79 -102,183 -127,183c-5,0 -24,-17 -43,-37c-39,-42 -37,-43 -139,46c-60,54 -89,61 -109,29c-11,-17 9,-53 74,-130l31,-38l-70,0c-77,0 -126,-13 -120,-33c3,-6 26,-27 53,-44c27,-18 53,-42 57,-53c4,-11 19,-25 33,-32c28,-13 33,-43 9,-52c-9,-3 -30,-6 -48,-6c-77,0 -140,-48 -100,-77c10,-7 28,-13 41,-13c13,0 32,-9 43,-20c11,-11 28,-20 39,-20c11,0 23,-12 31,-30c7,-17 16,-33 21,-36c5,-2 31,7 58,21c28,14 55,25 60,25c14,0 54,-69 48,-84c-4,-9 -40,-18 -103,-26c-117,-14 -146,-24 -138,-44c8,-21 102,-66 136,-66c32,0 35,-6 12,-31c-22,-24 -13,-35 46,-54c31,-10 50,-22 50,-32c0,-22 -60,-11 -123,22c-60,31 -134,34 -168,6l-23,-18l28,-27l29,-26l-47,-21c-26,-11 -75,-24 -109,-30c-96,-14 -104,-17 -110,-39c-3,-13 -28,-31 -70,-50c-36,-16 -68,-34 -71,-39c-10,-15 44,-47 109,-66c33,-9 82,-24 109,-32c48,-14 49,-14 85,14l36,29l23,-22c12,-12 22,-31 22,-43c0,-41 19,-63 47,-56c56,14 143,88 162,138c11,29 38,36 47,12c4,-8 17,-15 30,-15c29,0 29,-1 4,-50c-25,-49 -25,-47 6,-53c64,-12 138,33 171,105l20,41l7,-41c3,-22 17,-54 30,-69c24,-27 26,-27 53,-13c15,9 43,37 60,64c26,38 33,59 33,96c0,59 7,80 27,80c26,0 10,-103 -29,-179c-47,-93 -68,-105 -186,-109c-53,-1 -107,-5 -119,-8c-32,-6 -29,-35 7,-69c16,-15 27,-31 25,-35c-11,-18 -136,-43 -184,-37c-55,7 -182,66 -223,104c-35,33 -58,25 -58,-22c0,-40 1,-40 -64,-20c-65,20 -64,20 -68,-17c-2,-26 -8,-34 -27,-36c-19,-3 -22,-8 -19,-33c6,-38 -10,-38 -110,1c-140,53 -202,59 -202,19c0,-24 -2,-25 -123,-36c-104,-10 -124,-21 -105,-56c18,-34 76,-50 156,-44c39,3 72,2 72,-1c0,-4 -18,-16 -40,-26c-40,-19 -45,-36 -9,-36c21,0 128,-35 138,-45c3,-4 -1,-10 -10,-15c-9,-5 -27,-19 -40,-30l-24,-21l62,4c42,2 69,9 82,21c11,10 25,15 31,11c6,-4 26,7 46,24c33,30 74,41 74,21c0,-5 -32,-35 -70,-66c-39,-31 -69,-62 -67,-68c6,-17 89,-10 128,9c19,10 50,31 69,46c67,55 106,33 95,-55c-7,-53 -6,-55 18,-61c34,-9 103,23 157,71l42,38l-7,-37c-6,-29 -4,-38 9,-43c27,-10 66,5 96,38c23,25 39,32 79,36c28,2 51,1 51,-2c0,-4 -7,-20 -15,-37c-28,-53 -138,-113 -305,-164c-211,-64 -245,-62 -372,28c-118,84 -185,105 -129,42c40,-46 39,-58 -4,-53c-38,4 -44,-2 -20,-22c16,-13 21,-40 8,-40c-5,0 -57,25 -118,56c-60,30 -111,50 -113,45c-2,-6 6,-24 18,-41l21,-30l-130,0c-72,0 -131,-4 -131,-8c0,-16 112,-75 163,-87c58,-13 71,-33 41,-66c-22,-25 -17,-29 47,-36c50,-4 58,-2 104,31c27,20 56,36 62,36c21,0 15,-26 -12,-58c-14,-17 -25,-32 -25,-35c0,-2 14,-7 31,-11l31,-6l-21,-29c-39,-55 -30,-60 61,-35c32,9 61,14 64,11c3,-3 1,-22 -5,-43c-11,-41 -8,-54 17,-54c9,0 31,-15 49,-32l34,-32l48,17c27,9 55,17 64,17c8,0 23,19 33,43l18,42l4,-32c5,-49 23,-58 78,-39c26,9 62,27 80,41c42,32 54,26 54,-26c0,-46 12,-49 65,-18c20,12 55,23 77,25c31,2 47,10 64,31l23,28l1,-26c0,-38 7,-40 61,-18c60,23 65,23 49,4c-18,-22 -152,-95 -250,-138c-185,-79 -373,-114 -477,-88c-26,7 -78,26 -116,43c-37,17 -70,29 -73,26c-3,-3 -6,-25 -7,-49c-2,-38 1,-45 32,-66l34,-23l-86,0c-121,0 -126,3 -78,55c55,60 67,83 45,92c-19,7 -39,2 -288,-71c-197,-58 -320,-75 -401,-57c-48,11 -67,22 -112,66c-60,58 -65,83 -21,99c19,7 46,4 95,-9c186,-49 205,-26 78,96l-57,54l91,6c88,5 121,18 121,44c0,8 -19,20 -42,28l-43,14l41,21c44,23 94,74 94,98c0,19 -9,18 -61,-5c-77,-34 -203,-44 -474,-38c-271,7 -370,19 -460,61c-64,29 -71,46 -17,46c58,0 66,10 59,69c-3,28 -4,51 -1,51c3,0 24,-15 47,-34c78,-63 148,-85 161,-50c5,13 15,15 55,9c44,-6 50,-4 68,20c16,22 30,28 81,34c34,4 65,10 68,14c15,15 -19,59 -99,129c-47,40 -83,74 -82,76c2,2 43,-4 91,-13c140,-24 246,-29 267,-13c15,11 16,18 8,41c-23,61 37,114 145,127c102,13 120,45 41,74l-42,14l63,1c72,1 102,13 102,42c0,11 10,24 25,31c23,10 23,12 10,38c-18,36 -62,53 -124,48c-55,-3 -62,1 -31,20c24,15 26,38 3,46c-9,4 -42,4 -72,0l-54,-7l7,42c7,46 6,47 -33,26c-16,-8 -80,-23 -142,-34c-63,-11 -136,-27 -164,-35l-50,-15l83,77c111,104 111,137 0,81c-41,-21 -88,-25 -88,-8c0,6 11,25 25,43c27,35 33,76 12,76c-6,0 -45,-25 -86,-56c-99,-74 -156,-102 -241,-115c-133,-20 -354,18 -497,87c-80,38 -109,69 -119,123c-3,20 -18,53 -32,74c-14,20 -22,40 -19,43c11,11 44,-7 58,-32c20,-38 60,-54 133,-54c36,0 102,-7 146,-16c45,-9 84,-14 87,-10c4,3 8,30 11,60l4,54l76,-45c92,-55 119,-65 143,-58c23,8 25,42 3,73l-15,22l77,0c43,0 114,-5 158,-11c70,-10 89,-9 139,6c32,9 61,23 64,31c3,7 -9,30 -26,51c-17,21 -31,43 -31,49c0,6 26,21 59,33c89,32 108,71 41,84c-17,4 -29,11 -26,16c4,5 39,27 80,50c70,38 206,139 234,173c11,13 5,17 -45,27c-99,19 -131,31 -164,58c-30,25 -33,26 -93,16c-33,-6 -62,-9 -64,-8c-2,2 6,20 17,40c11,20 17,43 14,51c-9,24 -72,16 -130,-16c-77,-44 -152,-60 -268,-59c-82,0 -96,2 -80,12c10,7 32,24 48,40c27,25 28,31 22,80c-11,80 -13,81 -80,40c-140,-84 -223,-103 -357,-80c-177,30 -415,127 -578,236c-145,98 -173,133 -66,86c32,-14 62,-23 67,-20c5,4 9,22 9,41c0,19 3,34 8,34c4,-1 19,-18 34,-40c24,-34 31,-39 67,-38c29,0 56,-10 100,-36c34,-21 65,-35 71,-31c5,3 10,32 10,64c0,32 3,61 6,64c4,4 22,-7 41,-23c55,-49 136,-85 180,-81c13,1 33,53 34,90c0,19 6,9 22,-34c19,-50 26,-60 52,-66c17,-4 51,-15 77,-25l48,-18l48,47c26,26 56,47 66,47c16,0 17,6 11,70c-4,39 -5,70 -3,70c3,0 31,-9 63,-20c67,-23 115,-26 115,-7c0,7 -12,30 -26,50c-14,21 -24,40 -22,43c2,2 21,7 41,11l37,8l-35,49c-65,92 -31,118 55,41c57,-51 80,-56 177,-40l33,6l-26,39c-41,61 -29,80 61,95c46,8 90,31 153,83c43,35 44,37 21,43c-13,4 -86,7 -161,8c-76,1 -138,4 -138,7c0,3 11,20 25,38c25,32 33,66 17,66c-5,0 -60,-31 -123,-69c-157,-95 -201,-104 -148,-29c25,35 21,42 -15,28c-57,-21 -62,19 -10,82c35,41 36,43 15,46c-26,4 -71,-23 -159,-95c-165,-137 -209,-143 -439,-67c-208,69 -367,164 -408,245c-25,47 -20,59 26,59c51,0 75,-13 119,-63c31,-35 42,-40 80,-41l45,-1l-3,55l-3,55l60,-63c62,-65 109,-92 159,-92c45,0 52,15 45,95c-10,128 28,149 121,64c61,-56 134,-89 196,-89c61,0 52,23 -45,117c-47,45 -85,87 -85,93c0,5 13,10 30,10c22,0 37,-10 61,-40c21,-26 39,-39 53,-38c12,1 35,-8 52,-21c33,-24 154,-43 154,-24c0,5 -19,27 -41,48c-50,46 -47,50 63,85c125,39 120,33 59,71l-54,34l109,5c113,6 142,15 168,52c39,56 3,83 -124,93c-144,10 -153,13 -146,39c16,64 -76,59 -239,-14c-143,-63 -161,-64 -145,-10c9,31 -3,50 -31,50c-28,0 -40,23 -30,58c6,18 6,34 1,37c-5,3 -41,-6 -81,-20c-40,-14 -74,-25 -76,-25c-2,0 -3,24 -3,54c0,72 -18,79 -74,28c-78,-71 -233,-152 -293,-152c-36,0 -174,38 -196,54c-16,12 -14,16 23,54c22,22 40,49 40,60c0,38 -26,46 -149,47c-131,2 -160,12 -210,71c-36,45 -77,151 -91,240c-11,71 -7,104 15,104c19,0 25,-23 25,-101c0,-74 19,-125 74,-198c38,-50 61,-64 87,-51c28,16 59,86 59,138c0,50 15,56 24,8c9,-45 58,-116 100,-145c39,-26 112,-38 136,-22c12,8 10,19 -12,73c-28,68 -27,84 2,68c19,-10 31,-1 43,33c12,33 57,12 57,-26c0,-43 107,-154 188,-197c20,-10 27,-9 43,6c10,9 19,27 19,38c0,45 20,94 41,99c16,4 19,11 14,29c-5,19 -2,17 21,-11c15,-18 41,-41 57,-52c26,-15 34,-16 56,-5c14,8 62,23 106,35c80,22 150,56 175,85c18,23 2,39 -83,83c-53,28 -73,45 -83,69c-11,27 -21,34 -51,40c-157,26 -232,52 -261,87c-10,12 -8,17 11,30c30,19 39,50 22,74c-18,24 -139,30 -175,9c-104,-63 -195,-87 -188,-49c2,11 27,28 65,43c34,14 65,28 69,32c3,4 -3,22 -15,41c-11,19 -21,37 -21,39c0,3 17,8 39,11c71,9 179,79 169,109c-6,16 -70,32 -191,48c-122,16 -129,23 -94,96c31,64 44,66 110,24c65,-41 78,-39 100,15c18,44 25,49 57,46c8,-1 20,9 25,21c7,15 25,26 59,34c62,16 73,26 60,61c-11,35 -64,62 -136,70c-88,10 -104,43 -40,84c21,14 38,34 40,47c2,13 24,38 55,61c29,21 58,45 65,53c33,41 -25,68 -145,68c-40,0 -73,3 -73,6c0,3 20,31 44,62c60,78 86,123 86,148c0,23 -29,54 -50,54c-7,0 -54,-40 -104,-90c-51,-49 -99,-90 -107,-90c-8,0 -32,20 -52,45c-21,25 -44,45 -52,45c-34,0 -115,-139 -156,-266c-20,-65 -28,-76 -133,-179c-116,-115 -208,-177 -229,-156c-7,7 -14,77 -17,184c-5,138 -10,179 -25,206c-14,27 -16,46 -11,99c4,37 12,78 19,92c14,29 68,58 117,62l35,3l0,-60c0,-58 1,-60 28,-63c23,-3 39,7 83,48c53,50 54,51 79,34c30,-20 109,-15 132,9c21,21 9,39 -80,124c-63,59 -80,71 -119,76c-92,13 -123,38 -71,58c20,7 54,6 126,-5c114,-19 177,-20 230,-5c61,17 60,60 -2,72c-15,3 -47,22 -71,42c-28,23 -51,35 -66,33c-13,-2 -23,0 -24,5c0,4 0,11 0,17c0,5 33,35 73,66c83,65 107,90 107,111c0,12 -9,15 -43,11c-53,-6 -231,-89 -268,-124l-27,-26l5,65c7,86 -8,95 -59,38c-48,-55 -105,-168 -114,-226c-5,-38 -9,-45 -24,-40c-12,4 -31,-5 -55,-26c-19,-17 -38,-29 -41,-27c-8,9 16,191 32,239c18,55 57,118 128,208c88,111 146,202 146,233c0,36 -33,45 -86,23c-51,-21 -81,-50 -109,-106c-62,-122 -96,-73 -94,134c1,108 -1,120 -24,159c-14,24 -41,58 -60,76l-34,33l-7,-108zm-131,-1105c57,-63 93,-137 102,-206c6,-54 -3,-122 -16,-122c-11,0 -44,84 -66,165c-9,33 -34,86 -56,117c-22,32 -42,72 -46,89c-6,29 -5,31 14,20c12,-6 42,-34 68,-63zm-61,-456c76,-47 125,-101 143,-158c26,-84 7,-90 -61,-21c-30,30 -71,60 -90,67c-34,11 -93,78 -110,124c-15,42 40,37 118,-12zm800,-232c14,-5 26,-16 26,-25c0,-19 -145,-135 -225,-180c-33,-18 -77,-38 -98,-43c-21,-6 -46,-21 -56,-33c-28,-35 -51,-19 -51,36c0,33 6,51 21,66c19,19 29,21 89,15c98,-9 128,-1 138,38c6,22 19,37 48,52c21,11 41,29 43,40c4,22 20,44 32,44c4,0 19,-4 33,-10zm-195,-518c84,6 101,3 101,-17c0,-21 -32,-34 -97,-41c-57,-6 -59,-6 -120,41c-82,61 -86,70 -17,38c50,-23 66,-25 133,-21zm204,-63c15,-9 19,-7 24,11c7,25 46,24 51,-2c4,-19 -82,-87 -110,-88c-30,0 -49,61 -32,105c6,14 9,14 28,0c11,-8 29,-20 39,-26zm447,-89c28,-17 -21,-69 -54,-57c-24,9 -20,46 7,57c29,11 29,11 47,0zm-750,-576c13,-61 10,-247 -3,-261c-5,-4 -18,3 -29,17c-18,22 -20,36 -16,150c3,120 9,150 28,150c5,0 14,-25 20,-56zm-250,-404c0,-23 -22,-35 -46,-26c-15,6 -15,8 1,26c23,26 45,26 45,0zm251,-140l-4,-35l-10,28c-5,15 -6,45 -1,65l7,37l6,-30c4,-16 4,-46 2,-65zm-381,55c0,-19 -39,-40 -51,-28c-5,5 -7,17 -3,26c8,21 54,23 54,2zm-776,-94c58,-52 110,-74 157,-64c15,3 51,25 80,50c61,52 84,53 84,3c0,-51 37,-53 95,-5c45,37 57,39 74,13c35,-57 -156,-122 -394,-135c-112,-6 -116,-5 -144,18c-34,30 -69,125 -55,151c16,30 46,21 103,-31zm620,40c9,-13 -32,-44 -49,-37c-13,4 -14,10 -5,26c11,20 44,27 54,11zm4885,-953c-7,-12 -25,-40 -40,-61c-15,-21 -35,-62 -45,-90c-38,-116 -64,-135 -64,-46c0,63 29,121 88,177c50,47 81,57 61,20zm81,-331c0,-21 -60,-87 -80,-87c-10,0 -44,-21 -75,-46c-31,-25 -59,-43 -62,-40c-15,15 19,86 55,114c75,59 162,91 162,59zm-695,-199c6,-12 21,-25 35,-28c14,-3 31,-18 38,-33c15,-32 47,-42 106,-33c74,11 110,-17 98,-76c-4,-21 -30,-24 -46,-4c-6,7 -35,21 -63,30c-61,19 -140,64 -200,113c-49,39 -53,50 -20,55c31,5 41,1 52,-24zm-2017,-260c16,-16 15,-48 -2,-48c-20,0 -39,27 -32,45c7,18 18,19 34,3zm2242,-78c-54,-45 -83,-54 -143,-44c-36,6 -52,14 -52,24c0,12 16,15 80,15c56,0 89,5 110,17c43,25 45,21 5,-12zm-241,-101c-14,-8 -78,21 -98,45c-11,13 -11,17 3,22c9,3 23,1 30,-6c11,-9 21,-8 43,4l28,14l3,-35c2,-21 -2,-39 -9,-44zm-354,-29c0,-19 -32,-25 -50,-10c-24,20 -17,31 18,28c20,-2 32,-8 32,-18zm-4344,-194c-16,-19 -190,-105 -220,-108c-44,-5 -33,21 21,48c68,35 168,73 192,74c15,0 16,-3 7,-14zm4935,-178c4,-13 7,-52 7,-88c0,-75 -9,-110 -27,-110c-16,0 -28,77 -20,134c9,68 14,86 24,86c5,0 12,-10 16,-22zm212,-306c3,-9 -3,-13 -19,-10c-12,1 -24,9 -27,16c-3,9 3,13 19,10c12,-1 24,-9 27,-16zm-236,-55c3,-13 1,-32 -3,-43c-5,-13 -8,-7 -8,24c-1,46 4,55 11,19zm343,3c3,-5 3,-15 0,-20c-7,-12 -45,5 -45,20c0,13 37,13 45,0zm135,-61c0,-12 -21,-11 -40,1c-13,9 -13,11 0,19c15,10 40,-3 40,-20zm540,1c0,-29 -36,-96 -55,-104c-27,-10 -108,-7 -227,9c-118,17 -203,48 -203,75c0,23 39,23 60,0c11,-12 31,-20 52,-20c31,0 33,2 27,25c-5,21 -3,25 14,25c11,0 34,-12 51,-26c62,-52 133,-49 194,6c39,36 87,41 87,10zm-3060,-805c12,-7 10,-11 -10,-16c-34,-9 -159,-9 -190,1l-25,7l25,12c28,12 178,10 200,-4zm567,-351c36,-16 40,-25 18,-44c-12,-10 -22,-7 -54,21c-62,53 -52,59 36,23zm-307,-85l55,-41l80,5c44,3 98,12 120,19c34,12 48,12 88,0c38,-11 72,-12 150,-5c103,9 173,4 149,-10c-18,-12 -15,-44 5,-51c10,-4 50,9 100,33l83,40l0,-39c0,-47 -7,-46 169,-26c104,11 116,14 135,39c12,15 29,27 39,27c14,0 13,-5 -8,-36c-14,-20 -25,-44 -25,-54c0,-40 -87,-90 -158,-90c-27,0 -94,-14 -148,-31c-87,-27 -108,-30 -172,-24l-73,7l6,38c8,49 -3,55 -70,36l-54,-16l-47,30c-27,16 -52,30 -56,30c-16,0 -8,-37 12,-55c11,-10 20,-22 20,-27c0,-13 -46,-9 -90,8c-47,19 -61,13 -35,-16c16,-18 16,-20 1,-26c-53,-20 -468,104 -556,166c-58,41 -36,60 69,60c56,0 74,4 102,24c19,13 39,25 44,25c6,1 35,-18 65,-40zm400,27c0,-20 -26,-40 -35,-26c-10,16 2,40 20,40c8,0 15,-6 15,-14zm2290,-303c36,-14 72,-32 80,-40c13,-14 11,-15 -24,-10c-40,6 -186,71 -186,82c0,10 59,-5 130,-32zm-2355,-423c-3,-5 -11,-10 -16,-10c-6,0 -7,5 -4,10c3,6 11,10 16,10c6,0 7,-4 4,-10zm-49,-30c7,0 11,-8 10,-17c-1,-14 9,-19 46,-23c26,-3 55,-13 66,-23c11,-10 35,-17 58,-17c22,0 45,-5 52,-12c15,-15 68,2 122,38c19,13 37,24 40,24c3,0 5,-17 5,-37c0,-37 1,-38 38,-41c115,-10 -48,-62 -238,-77c-101,-7 -236,15 -342,57c-48,19 -59,28 -61,49c-3,29 15,39 76,39c23,0 40,8 55,25c15,17 29,24 42,20c11,-2 25,-5 31,-5zm-801,-921c36,-9 45,-16 50,-40c13,-57 -13,-61 -144,-25c-101,27 -124,52 -38,42c50,-7 57,-5 67,13c13,25 9,24 65,10zm-4665,-226c0,-16 -35,-43 -57,-43c-31,0 -29,16 5,34c29,16 52,20 52,9zm571,-357c35,-41 66,-75 69,-75c3,-1 25,31 50,69c25,38 50,72 57,74c6,3 23,-13 38,-36l27,-40l24,23c13,12 26,20 28,18c3,-2 14,-25 25,-51c30,-71 64,-81 84,-26c7,20 55,31 117,26l45,-4l-80,-39c-84,-42 -97,-44 -327,-45c-21,0 -28,-5 -28,-20c0,-27 -10,-26 -100,15c-89,40 -92,41 -124,19c-22,-13 -28,-13 -60,0c-20,8 -36,21 -36,29c0,14 106,137 119,137c4,0 37,-33 72,-74zm699,36c0,-13 -47,-32 -78,-32l-27,1l24,19c23,20 81,28 81,12zm3334,-550c27,-28 55,-48 62,-45c7,3 29,-4 47,-16c44,-27 47,-27 47,9c0,52 35,36 138,-64c34,-33 62,-58 62,-56c0,3 -6,39 -14,80c-14,72 -10,100 13,86c6,-4 11,-16 11,-26c0,-28 13,-31 49,-9c37,23 36,23 154,-58c43,-29 83,-51 88,-48c5,4 6,30 3,59l-6,53l89,6c49,3 116,14 148,25l59,20l53,-46l54,-47l-98,-33c-216,-73 -491,-142 -565,-142c-44,0 -201,77 -348,171c-88,56 -116,83 -126,123c-6,25 -5,27 12,18c11,-6 41,-33 68,-60zm1163,11c2,-6 -4,-18 -13,-27c-15,-16 -18,-16 -35,0c-25,22 -24,32 4,37c29,5 40,3 44,-10zm3707,-139c9,-3 16,-10 16,-15c0,-15 -37,-10 -50,6c-10,12 -10,15 3,15c8,0 22,-3 31,-6zm-617,-244c20,-27 40,-50 43,-50c4,0 19,14 36,31c16,17 42,40 57,51l29,21l44,-44c24,-24 44,-48 44,-55c0,-22 -66,-34 -85,-15c-6,6 -31,2 -65,-10c-86,-31 -102,-34 -111,-16c-7,12 -29,15 -116,14c-92,0 -116,3 -163,23c-81,34 -84,43 -16,38c46,-4 63,-10 77,-27c23,-28 50,-16 69,29c14,34 13,34 41,18c19,-12 24,-10 42,15c11,15 24,27 29,27c4,0 24,-22 45,-50zm-401,15c21,-16 12,-18 -35,-9c-17,4 -31,10 -31,15c0,14 44,10 66,-6zm-7526,-459c0,-27 -24,-41 -47,-27c-14,7 -13,11 6,30c28,28 41,27 41,-3zm7780,-506c0,-13 -37,-13 -45,0c-3,6 -3,15 0,20c7,12 45,-5 45,-20zm-4125,-579c3,-5 -8,-19 -24,-30c-25,-18 -30,-19 -41,-6c-15,18 -13,21 20,34c32,13 38,13 45,2z"/>
  </g>
 </g>
</svg>